<?xml version="1.0" encoding="utf-8"?>
<!-- Generator: Adobe Illustrator 19.2.1, SVG Export Plug-In . SVG Version: 6.00 Build 0)  -->
<svg version="1.1" id="Laag_1" xmlns="http://www.w3.org/2000/svg" xmlns:xlink="http://www.w3.org/1999/xlink" x="0px" y="0px"
	 viewBox="0 0 768 768" style="enable-background:new 0 0 768 768;" xml:space="preserve">
<g id="XMLID_1_">
	<path id="XMLID_2_" d="M318,249.5l71.6,90.1c80.4,14.4,141.3,84.2,141.3,167c0,3.4-0.3,6.8-0.6,10.1l70.4,88.6
		c13-31.6,19.8-64.7,19.8-98.7c0-143.8-117-260.8-260.8-260.8C346,245.8,332.1,247.2,318,249.5z"/>
	<path id="XMLID_3_" d="M219.4,200.8c-9.9-11.3-15.5-27.1-15.5-43.5c0-34.3,26.7-62.5,60.9-64.3l7.2,0c14.9,0.8,29.3,6.9,40.4,17.3
		l4.2,3.9l3.1,2.9l3.3-2.7l63.3-51.2l4.3-3.5l-4-3.8l-11-10.5C352,22.9,322.4,8.5,290,4.1c-8.6-1.2-15-1.7-21.4-1.7
		c-6.4,0-12.8,0.5-21.5,1.7c-45.8,6.3-86.1,32.6-110.5,72.1c-6.2,10-11.2,20.7-15,31.9c-5.4,16.2-8.1,32.8-8.1,49.4
		c0,32.4,10.2,63.8,29.4,90.5l47.9,60.2c-58.5,49.7-92,121.7-92,198.4c0,143.8,117,260.8,260.8,260.8c56.6,0,110.3-17.8,155.6-51.7
		l39.7,49.8l1.5,1.8h2.4h100.5h10.1l-6.3-7.9L219.4,200.8z M359.6,677.8c-94.4,0-171.3-76.8-171.3-171.3
		c0-49.2,21.2-95.6,58.4-128.1l212.5,266.9C429.9,666.6,395.6,677.8,359.6,677.8z"/>
</g>
</svg>
